<svg width="1024" height="1024" viewBox="0 0 1024 1024" fill="none" xmlns="http://www.w3.org/2000/svg">
<g clip-path="url(#clip0)">
<path d="M958 815.022V874.488C883.211 874.488 780.591 807.787 672.163 807.787C608.275 807.787 568.234 834.15 544.171 860.495H512L472.355 675.792L958 815.022Z" fill="#21539C"/>
<path d="M512 675.792V860.495H479.829C455.764 834.151 415.723 807.787 351.837 807.787C243.41 807.787 140.79 874.488 66 874.488V815.022L512 675.792Z" fill="#CB4848"/>
<path d="M958 216.213V815.022C883.211 815.022 780.591 748.321 672.163 748.321C608.275 748.321 568.234 774.684 544.171 801.029H512L432.711 527.988L512 254.945C512 254.945 544.389 149.512 672.163 149.512C780.591 149.512 883.211 216.213 958 216.213Z" fill="#102E59"/>
<path d="M512 254.945V801.027H479.829C455.764 774.664 415.723 748.319 351.837 748.319C243.41 748.319 140.79 815.02 66 815.02V216.213C140.789 216.213 243.409 149.512 351.837 149.512C479.611 149.512 512 254.945 512 254.945Z" fill="#BC0D0D"/>
<g style="mix-blend-mode:luminosity" opacity="0.2">
<rect x="295.272" y="553.687" width="52.0147" height="67.1857" transform="rotate(-90 295.272 553.687)" fill="white"/>
<circle cx="267.097" cy="527.68" r="26.0074" transform="rotate(-90 267.097 527.68)" fill="white"/>
<ellipse cx="293.105" cy="553.687" rx="26.0074" ry="26.0074" transform="rotate(-90 293.105 553.687)" fill="white"/>
<ellipse cx="293.105" cy="501.672" rx="26.0074" ry="26.0074" transform="rotate(-90 293.105 501.672)" fill="white"/>
<rect x="661.542" y="553.687" width="52.0147" height="67.1857" transform="rotate(-90 661.542 553.687)" fill="white"/>
<ellipse cx="756.903" cy="527.68" rx="26.0074" ry="26.0074" transform="rotate(90 756.903 527.68)" fill="white"/>
<ellipse cx="730.896" cy="501.672" rx="26.0074" ry="26.0074" transform="rotate(90 730.896 501.672)" fill="white"/>
<ellipse cx="730.896" cy="553.687" rx="26.0074" ry="26.0074" transform="rotate(90 730.896 553.687)" fill="white"/>
<rect x="485.992" y="310.952" width="52.0147" height="67.1857" fill="white"/>
<circle cx="512" cy="282.777" r="26.0074" fill="white"/>
<ellipse cx="485.992" cy="308.784" rx="26.0074" ry="26.0074" fill="white"/>
<ellipse cx="538.007" cy="308.784" rx="26.0074" ry="26.0074" fill="white"/>
<rect x="485.992" y="677.222" width="52.0147" height="67.1857" fill="white"/>
<circle cx="512" cy="772.583" r="26.0074" transform="rotate(-180 512 772.583)" fill="white"/>
<ellipse cx="538.007" cy="746.575" rx="26.0074" ry="26.0074" transform="rotate(-180 538.007 746.575)" fill="white"/>
<circle cx="485.992" cy="746.575" r="26.0074" transform="rotate(-180 485.992 746.575)" fill="white"/>
<ellipse cx="512" cy="527.68" rx="162.546" ry="162.546" fill="white"/>
<circle cx="512" cy="527.68" r="119.2" fill="white"/>
<rect x="392.8" y="501.672" width="238.401" height="52.0147" fill="white"/>
</g>
</g>
<defs>
<clipPath id="clip0">
<rect width="892" height="892" fill="white" transform="translate(66 66)"/>
</clipPath>
</defs>
</svg>
